<?xml version="1.0"?>
<svg xmlns="http://www.w3.org/2000/svg" id="icon" viewBox="0 0 128 128" width="512" height="512"><rect x="15.096" y="1" width="97.803" height="125.999" rx="10.133" ry="10.133" fill="#b0b3c1"/><path d="M112.9,11.139V116.865A10.134,10.134,0,0,1,102.769,127H25.232a10.128,10.128,0,0,1-9.392-6.328H99.108a6.618,6.618,0,0,0,6.62-6.606V1.441A10.155,10.155,0,0,1,112.9,11.139Z" fill="#9297ab"/><path d="M102.767,128H25.229A11.145,11.145,0,0,1,14.1,116.866V11.133A11.145,11.145,0,0,1,25.229,0h77.538A11.145,11.145,0,0,1,113.9,11.133V116.866A11.145,11.145,0,0,1,102.767,128ZM25.229,2A9.143,9.143,0,0,0,16.1,11.133V116.866A9.143,9.143,0,0,0,25.229,126h77.538a9.143,9.143,0,0,0,9.133-9.133V11.133A9.143,9.143,0,0,0,102.767,2Z" fill="#2f3a5a"/><rect x="22.275" y="8.194" width="83.445" height="37.956" rx="3.187" ry="3.187" fill="#d9e2e9"/><path d="M102.533,47.15H25.463a4.192,4.192,0,0,1-4.187-4.187V11.381a4.192,4.192,0,0,1,4.188-4.187h77.07a4.192,4.192,0,0,1,4.188,4.187V42.963A4.192,4.192,0,0,1,102.533,47.15ZM25.463,9.194a2.19,2.19,0,0,0-2.187,2.187V42.963a2.19,2.19,0,0,0,2.188,2.188h77.07a2.19,2.19,0,0,0,2.188-2.187V11.381a2.19,2.19,0,0,0-2.187-2.187Z" fill="#2f3a5a"/><rect x="29.516" y="15.065" width="68.968" height="24.21" fill="#81dafc"/><path d="M37.84,56.467H25.648a1.325,1.325,0,0,0-1.278,1.367v6.888a1.325,1.325,0,0,0,1.278,1.367H37.84a1.325,1.325,0,0,0,1.278-1.367V57.834A1.325,1.325,0,0,0,37.84,56.467Z" fill="#d9e2e9"/><path d="M37.84,67.089H25.648a2.327,2.327,0,0,1-2.278-2.368V57.834a2.327,2.327,0,0,1,2.278-2.368H37.84a2.327,2.327,0,0,1,2.278,2.368v6.887A2.327,2.327,0,0,1,37.84,67.089ZM25.648,57.467c-.15,0-.278.168-.278.368v6.887c0,.2.127.368.278.368H37.84c.15,0,.278-.168.278-.368V57.834c0-.2-.127-.368-.278-.368Z" fill="#2f3a5a"/><path d="M59.125,56.467H46.933a1.325,1.325,0,0,0-1.278,1.367v6.888a1.325,1.325,0,0,0,1.278,1.367H59.125A1.325,1.325,0,0,0,60.4,64.722V57.834A1.325,1.325,0,0,0,59.125,56.467Z" fill="#d9e2e9"/><path d="M59.125,67.089H46.933a2.327,2.327,0,0,1-2.278-2.368V57.834a2.327,2.327,0,0,1,2.278-2.368H59.125A2.327,2.327,0,0,1,61.4,57.834v6.887A2.327,2.327,0,0,1,59.125,67.089ZM46.933,57.467c-.15,0-.278.168-.278.368v6.887c0,.2.127.368.278.368H59.125c.15,0,.278-.168.278-.368V57.834c0-.2-.127-.368-.278-.368Z" fill="#2f3a5a"/><path d="M80.41,56.467H68.218a1.325,1.325,0,0,0-1.278,1.367v6.888a1.325,1.325,0,0,0,1.278,1.367H80.41a1.325,1.325,0,0,0,1.278-1.367V57.834A1.325,1.325,0,0,0,80.41,56.467Z" fill="#d9e2e9"/><path d="M80.41,67.089H68.218a2.327,2.327,0,0,1-2.278-2.368V57.834a2.327,2.327,0,0,1,2.278-2.368H80.41a2.327,2.327,0,0,1,2.278,2.368v6.887A2.327,2.327,0,0,1,80.41,67.089ZM68.218,57.467c-.15,0-.278.168-.278.368v6.887c0,.2.127.368.278.368H80.41c.151,0,.278-.168.278-.368V57.834c0-.2-.127-.368-.278-.368Z" fill="#2f3a5a"/><path d="M101.695,56.467H89.5a1.325,1.325,0,0,0-1.278,1.367v6.888A1.325,1.325,0,0,0,89.5,66.089h12.192a1.325,1.325,0,0,0,1.278-1.367V57.834A1.325,1.325,0,0,0,101.695,56.467Z" fill="#d9e2e9"/><path d="M101.695,67.089H89.5a2.327,2.327,0,0,1-2.278-2.368V57.834A2.327,2.327,0,0,1,89.5,55.467h12.192a2.327,2.327,0,0,1,2.278,2.368v6.887A2.327,2.327,0,0,1,101.695,67.089ZM89.5,57.467c-.15,0-.278.168-.278.368v6.887c0,.2.127.368.278.368h12.192c.15,0,.278-.168.278-.368V57.834c0-.2-.127-.368-.278-.368Z" fill="#2f3a5a"/><path d="M37.84,73.27H25.648a1.325,1.325,0,0,0-1.278,1.367v6.888a1.325,1.325,0,0,0,1.278,1.367H37.84a1.325,1.325,0,0,0,1.278-1.367V74.637A1.325,1.325,0,0,0,37.84,73.27Z" fill="#d9e2e9"/><path d="M37.84,83.892H25.648a2.327,2.327,0,0,1-2.278-2.367V74.637a2.327,2.327,0,0,1,2.278-2.367H37.84a2.327,2.327,0,0,1,2.278,2.367v6.888A2.327,2.327,0,0,1,37.84,83.892ZM25.648,74.27c-.15,0-.278.168-.278.367v6.888c0,.2.127.367.278.367H37.84c.15,0,.278-.168.278-.367V74.637c0-.2-.127-.367-.278-.367Z" fill="#2f3a5a"/><path d="M59.125,73.27H46.933a1.325,1.325,0,0,0-1.278,1.367v6.888a1.325,1.325,0,0,0,1.278,1.367H59.125A1.325,1.325,0,0,0,60.4,81.525V74.637A1.325,1.325,0,0,0,59.125,73.27Z" fill="#d9e2e9"/><path d="M59.125,83.892H46.933a2.327,2.327,0,0,1-2.278-2.367V74.637a2.327,2.327,0,0,1,2.278-2.367H59.125A2.327,2.327,0,0,1,61.4,74.637v6.888A2.327,2.327,0,0,1,59.125,83.892ZM46.933,74.27c-.15,0-.278.168-.278.367v6.888c0,.2.127.367.278.367H59.125c.15,0,.278-.168.278-.367V74.637c0-.2-.127-.367-.278-.367Z" fill="#2f3a5a"/><path d="M80.41,73.27H68.218a1.325,1.325,0,0,0-1.278,1.367v6.888a1.325,1.325,0,0,0,1.278,1.367H80.41a1.325,1.325,0,0,0,1.278-1.367V74.637A1.325,1.325,0,0,0,80.41,73.27Z" fill="#d9e2e9"/><path d="M80.41,83.892H68.218a2.327,2.327,0,0,1-2.278-2.367V74.637a2.327,2.327,0,0,1,2.278-2.367H80.41a2.327,2.327,0,0,1,2.278,2.367v6.888A2.327,2.327,0,0,1,80.41,83.892ZM68.218,74.27c-.15,0-.278.168-.278.367v6.888c0,.2.127.367.278.367H80.41c.151,0,.278-.168.278-.367V74.637c0-.2-.127-.367-.278-.367Z" fill="#2f3a5a"/><path d="M101.695,73.27H89.5a1.325,1.325,0,0,0-1.278,1.367v6.888A1.325,1.325,0,0,0,89.5,82.892h12.192a1.325,1.325,0,0,0,1.278-1.367V74.637A1.325,1.325,0,0,0,101.695,73.27Z" fill="#d9e2e9"/><path d="M101.695,83.892H89.5a2.327,2.327,0,0,1-2.278-2.367V74.637A2.327,2.327,0,0,1,89.5,72.27h12.192a2.327,2.327,0,0,1,2.278,2.367v6.888A2.327,2.327,0,0,1,101.695,83.892ZM89.5,74.27c-.15,0-.278.168-.278.367v6.888c0,.2.127.367.278.367h12.192c.15,0,.278-.168.278-.367V74.637c0-.2-.127-.367-.278-.367Z" fill="#2f3a5a"/><path d="M37.84,90.073H25.648A1.325,1.325,0,0,0,24.37,91.44v6.888A1.325,1.325,0,0,0,25.648,99.7H37.84a1.325,1.325,0,0,0,1.278-1.367V91.44A1.325,1.325,0,0,0,37.84,90.073Z" fill="#d9e2e9"/><path d="M37.84,100.7H25.648a2.327,2.327,0,0,1-2.278-2.367V91.44a2.327,2.327,0,0,1,2.278-2.367H37.84a2.327,2.327,0,0,1,2.278,2.367v6.888A2.327,2.327,0,0,1,37.84,100.7ZM25.648,91.073c-.15,0-.278.168-.278.367v6.888c0,.2.127.367.278.367H37.84c.15,0,.278-.168.278-.367V91.44c0-.2-.127-.367-.278-.367Z" fill="#2f3a5a"/><path d="M59.125,90.073H46.933a1.325,1.325,0,0,0-1.278,1.367v6.888A1.325,1.325,0,0,0,46.933,99.7H59.125A1.325,1.325,0,0,0,60.4,98.328V91.44A1.325,1.325,0,0,0,59.125,90.073Z" fill="#d9e2e9"/><path d="M59.125,100.7H46.933a2.327,2.327,0,0,1-2.278-2.367V91.44a2.327,2.327,0,0,1,2.278-2.367H59.125A2.327,2.327,0,0,1,61.4,91.44v6.888A2.327,2.327,0,0,1,59.125,100.7ZM46.933,91.073c-.15,0-.278.168-.278.367v6.888c0,.2.127.367.278.367H59.125c.15,0,.278-.168.278-.367V91.44c0-.2-.127-.367-.278-.367Z" fill="#2f3a5a"/><path d="M80.41,90.073H68.218A1.325,1.325,0,0,0,66.94,91.44v6.888A1.325,1.325,0,0,0,68.218,99.7H80.41a1.325,1.325,0,0,0,1.278-1.367V91.44A1.325,1.325,0,0,0,80.41,90.073Z" fill="#d9e2e9"/><path d="M80.41,100.7H68.218a2.327,2.327,0,0,1-2.278-2.367V91.44a2.327,2.327,0,0,1,2.278-2.367H80.41a2.327,2.327,0,0,1,2.278,2.367v6.888A2.327,2.327,0,0,1,80.41,100.7ZM68.218,91.073c-.15,0-.278.168-.278.367v6.888c0,.2.127.367.278.367H80.41c.151,0,.278-.168.278-.367V91.44c0-.2-.127-.367-.278-.367Z" fill="#2f3a5a"/><path d="M101.695,90.073H89.5a1.325,1.325,0,0,0-1.278,1.367v6.888A1.325,1.325,0,0,0,89.5,99.7h12.192a1.325,1.325,0,0,0,1.278-1.367V91.44A1.325,1.325,0,0,0,101.695,90.073Z" fill="#d9e2e9"/><path d="M101.695,100.7H89.5a2.327,2.327,0,0,1-2.278-2.367V91.44A2.327,2.327,0,0,1,89.5,89.073h12.192a2.327,2.327,0,0,1,2.278,2.367v6.888A2.327,2.327,0,0,1,101.695,100.7ZM89.5,91.073c-.15,0-.278.168-.278.367v6.888c0,.2.127.367.278.367h12.192c.15,0,.278-.168.278-.367V91.44c0-.2-.127-.367-.278-.367Z" fill="#2f3a5a"/><path d="M37.84,106.876H25.648a1.325,1.325,0,0,0-1.278,1.367v6.888a1.325,1.325,0,0,0,1.278,1.367H37.84a1.325,1.325,0,0,0,1.278-1.367v-6.888A1.325,1.325,0,0,0,37.84,106.876Z" fill="#d9e2e9"/><path d="M37.84,117.5H25.648a2.327,2.327,0,0,1-2.278-2.368v-6.888a2.327,2.327,0,0,1,2.278-2.367H37.84a2.327,2.327,0,0,1,2.278,2.367v6.888A2.327,2.327,0,0,1,37.84,117.5Zm-12.192-9.623c-.15,0-.278.168-.278.367v6.888c0,.2.127.368.278.368H37.84c.15,0,.278-.168.278-.368v-6.888c0-.2-.127-.367-.278-.367Z" fill="#2f3a5a"/><path d="M59.125,106.876H46.933a1.325,1.325,0,0,0-1.278,1.367v6.888a1.325,1.325,0,0,0,1.278,1.367H59.125a1.325,1.325,0,0,0,1.278-1.367v-6.888A1.325,1.325,0,0,0,59.125,106.876Z" fill="#d9e2e9"/><path d="M59.125,117.5H46.933a2.327,2.327,0,0,1-2.278-2.368v-6.888a2.327,2.327,0,0,1,2.278-2.367H59.125a2.327,2.327,0,0,1,2.278,2.367v6.888A2.327,2.327,0,0,1,59.125,117.5Zm-12.192-9.623c-.15,0-.278.168-.278.367v6.888c0,.2.127.368.278.368H59.125c.15,0,.278-.168.278-.368v-6.888c0-.2-.127-.367-.278-.367Z" fill="#2f3a5a"/><path d="M80.41,106.876H68.218a1.325,1.325,0,0,0-1.278,1.367v6.888a1.325,1.325,0,0,0,1.278,1.367H80.41a1.325,1.325,0,0,0,1.278-1.367v-6.888A1.325,1.325,0,0,0,80.41,106.876Z" fill="#d9e2e9"/><path d="M80.41,117.5H68.218a2.327,2.327,0,0,1-2.278-2.368v-6.888a2.327,2.327,0,0,1,2.278-2.367H80.41a2.327,2.327,0,0,1,2.278,2.367v6.888A2.327,2.327,0,0,1,80.41,117.5Zm-12.192-9.623c-.15,0-.278.168-.278.367v6.888c0,.2.127.368.278.368H80.41c.151,0,.278-.168.278-.368v-6.888c0-.2-.127-.367-.278-.367Z" fill="#2f3a5a"/><path d="M101.695,106.876H89.5a1.325,1.325,0,0,0-1.278,1.367v6.888A1.325,1.325,0,0,0,89.5,116.5h12.192a1.325,1.325,0,0,0,1.278-1.367v-6.888A1.325,1.325,0,0,0,101.695,106.876Z" fill="#d9e2e9"/><path d="M101.695,117.5H89.5a2.327,2.327,0,0,1-2.278-2.368v-6.888a2.327,2.327,0,0,1,2.278-2.367h12.192a2.327,2.327,0,0,1,2.278,2.367v6.888A2.327,2.327,0,0,1,101.695,117.5ZM89.5,107.876c-.15,0-.278.168-.278.367v6.888c0,.2.127.368.278.368h12.192c.15,0,.278-.168.278-.368v-6.888c0-.2-.127-.367-.278-.367Z" fill="#2f3a5a"/><g opacity="0.5"><polygon points="67.416 15.065 53.899 39.275 41.628 39.275 55.146 15.065 67.416 15.065" fill="#fff"/><polygon points="80.921 15.065 67.403 39.275 61.261 39.275 74.779 15.065 80.921 15.065" fill="#fff"/></g><path d="M98.484,40.277H29.512a1,1,0,0,1-1-1V15.067a1,1,0,0,1,1-1H98.484a1,1,0,0,1,1,1V39.277A1,1,0,0,1,98.484,40.277Zm-67.972-2H97.484V16.067H30.512Z" fill="#2f3a5a"/></svg>
