<?xml version="1.0"?>
<svg xmlns="http://www.w3.org/2000/svg" id="icon" viewBox="0 0 128 128" width="512" height="512"><path d="M125.833,76.026l-4.346-6.452v-.067l5.513-5.5-5.513-5.513c-.013-.188-.027-.376-.054-.563l4.292-6.493-6.466-4.279a.248.248,0,0,1-.027-.094l2.965-7.177-7.177-2.965-.282-.523,1.489-7.619L108.6,27.292l-.054-.054v-7.78h-7.78c-.148-.121-.3-.228-.443-.349l-1.556-7.646-5.272,1.073-2.347.483a.294.294,0,0,0-.067-.04L88.112,5.8,80.935,8.767l-.563-.161-4.36-6.439L69.56,6.513h-.054L63.993,1l-5.5,5.513c-.188.013-.376.027-.563.054L51.438,2.274,47.145,8.74a.19.19,0,0,1-.08.027L39.888,5.8,36.91,12.979l-.523.282-7.619-1.489L27.292,19.4a.235.235,0,0,1-.067.054H19.458v7.78l-.362.443-7.633,1.556,1.556,7.619a.3.3,0,0,0-.04.067L5.8,39.888l2.965,7.177-.161.563-6.452,4.36,4.36,6.452v.054L1,64.007l5.513,5.5q.02.282.04.563L2.261,76.562,8.74,80.842a.859.859,0,0,0,.027.094L5.8,88.112l7.177,2.978c.094.174.175.349.268.523l-1.476,7.619,7.633,1.476a.237.237,0,0,0,.054.067v7.767h7.767c.147.121.309.241.443.362l.416,2.066,1.14,5.567,7.619-1.556a.294.294,0,0,1,.067.04l2.978,7.177,7.177-2.964.563.161,4.346,6.452,6.452-4.36h.067l5.5,5.513,5.513-5.513.563-.04,6.492,4.293,4.279-6.479c.027-.013.067-.013.094-.027l7.177,2.964,2.964-7.177c.175-.094.349-.174.523-.268l7.619,1.476,1.489-7.633a.1.1,0,0,0,.054-.054h7.78v-7.767c.121-.148.228-.309.349-.443l7.646-1.556-1.556-7.619a.294.294,0,0,1,.04-.067l7.177-2.978-2.965-7.177c.054-.188.094-.376.161-.563ZM63.993,50.11a13.89,13.89,0,1,1-13.884,13.9A13.9,13.9,0,0,1,63.993,50.11Z" fill="#9297ab"/><path d="M93.491,12.536l-2.347.483a.294.294,0,0,0-.067-.04L88.112,5.8,80.935,8.767l-.563-.161-4.36-6.439L69.56,6.513h-.054L63.993,1l-5.5,5.513c-.188.013-.376.027-.563.054L51.438,2.274,47.145,8.74a.19.19,0,0,1-.08.027L39.888,5.8,36.91,12.979l-.523.282-7.619-1.489L27.292,19.4a.235.235,0,0,1-.067.054H19.458v7.78l-.362.443-7.633,1.556,1.556,7.619a.3.3,0,0,0-.04.067L5.8,39.888l2.965,7.177-.161.563-6.452,4.36,4.36,6.452v.054L1,64.007l5.513,5.5q.02.282.04.563L2.261,76.562,8.74,80.842a.859.859,0,0,0,.027.094L5.8,88.112l7.177,2.978c.094.174.175.349.268.523l-1.476,7.619,7.633,1.476a.237.237,0,0,0,.054.067v7.767h7.767c.147.121.309.241.443.362l.416,2.066c20.47-.174,42.617-13.28,56.595-35.7C97.73,54.375,100.373,30.619,93.491,12.536ZM63.993,77.89a13.89,13.89,0,1,1,13.9-13.884A13.877,13.877,0,0,1,63.993,77.89Z" fill="#b0b3c1"/><path d="M63.993,128h0a1,1,0,0,1-.707-.294l-4.943-4.955-5.808,3.924a1,1,0,0,1-1.389-.27l-4.1-6.083-6.778,2.8a1,1,0,0,1-1.306-.541l-2.682-6.465-6.858,1.4a1,1,0,0,1-1.18-.78l-1.467-7.195H19.458a1,1,0,0,1-1-1v-7l-6.876-1.329a1,1,0,0,1-.792-1.172l1.394-7.2L5.419,89.036a1,1,0,0,1-.541-1.306l2.675-6.475L1.71,77.4a1,1,0,0,1-.283-1.386l4.051-6.126L.294,64.715a1,1,0,0,1,0-1.415l4.952-4.952-3.92-5.8a1,1,0,0,1,.269-1.389l6.084-4.111-2.8-6.778a1,1,0,0,1,.542-1.306l6.464-2.67-1.4-6.856a1,1,0,0,1,.779-1.18l7.2-1.466V19.458a1,1,0,0,1,1-1h7l1.33-6.876a1,1,0,0,1,1.173-.792L36.152,12.2l2.812-6.777a1,1,0,0,1,1.306-.541l6.466,2.671L50.6,1.721a1,1,0,0,1,1.385-.281l6.117,4.044L63.285.294A1,1,0,0,1,63.992,0h0A1,1,0,0,1,64.7.293l4.953,4.952,5.8-3.908a1,1,0,0,1,1.387.269l4.11,6.072,6.779-2.8a1,1,0,0,1,1.306.542l2.67,6.463,6.856-1.4a1,1,0,0,1,1.18.78l1.465,7.195h7.335a1,1,0,0,1,1,1v7L116.42,27.8a1,1,0,0,1,.79,1.173L115.8,36.165l6.775,2.8a1,1,0,0,1,.542,1.306l-2.675,6.476,5.83,3.858a1,1,0,0,1,.282,1.385l-4.044,6.119,5.191,5.192a1,1,0,0,1,0,1.415l-4.956,4.944,3.912,5.809a1,1,0,0,1-.27,1.387l-6.07,4.1,2.8,6.778a1,1,0,0,1-.541,1.306l-6.465,2.682,1.4,6.858a1,1,0,0,1-.78,1.18l-7.194,1.464v7.321a1,1,0,0,1-1,1h-7L100.2,116.42a1,1,0,0,1-1.172.791l-7.2-1.395-2.794,6.764a1,1,0,0,1-1.306.542l-6.475-2.674L77.4,126.291a1,1,0,0,1-1.386.283l-6.126-4.051L64.7,127.707A1,1,0,0,1,63.993,128Zm-5.566-7.513a1.16,1.16,0,0,1,.774.294l4.793,4.8L68.8,120.78a1,1,0,0,1,.635-.291l.563-.041a1.024,1.024,0,0,1,.624.164l5.657,3.741,3.729-5.645a1,1,0,0,1,.387-.343,1.36,1.36,0,0,1,.244-.087,1.016,1.016,0,0,1,.679.031l6.252,2.583,2.583-6.252a1,1,0,0,1,.451-.5l.521-.267a1,1,0,0,1,.665-.1l6.639,1.286,1.3-6.653a1.112,1.112,0,0,1,1.035-.862h6.78v-6.767a1,1,0,0,1,.227-.633l.121-.157c.084-.112.167-.221.256-.319a1,1,0,0,1,.546-.313L115.357,98,114,91.357a1,1,0,0,1,.088-.654,1.569,1.569,0,0,1,.226-.321,1,1,0,0,1,.324-.217l6.254-2.595-2.583-6.254a1,1,0,0,1-.038-.657l.045-.166c.04-.154.082-.307.137-.46a1,1,0,0,1,.382-.491l5.61-3.788-3.787-5.624a1,1,0,0,1-.171-.559,1.162,1.162,0,0,1,.294-.775l4.8-4.792-4.8-4.805a1,1,0,0,1-.29-.634c-.013-.166-.023-.332-.047-.5a1,1,0,0,1,.156-.69l3.74-5.659-5.632-3.728a1,1,0,0,1-.336-.374,1.441,1.441,0,0,1-.139-.554.987.987,0,0,1,.076-.382l2.583-6.252-6.253-2.583a1,1,0,0,1-.5-.447l-.284-.527a1,1,0,0,1-.1-.666l1.3-6.638-6.651-1.3a1,1,0,0,1-.516-.274,1.187,1.187,0,0,1-.347-.761v-6.78h-6.78a1,1,0,0,1-.633-.226l-.442-.349a1,1,0,0,1-.347-.574l-1.357-6.666L91.344,14a1,1,0,0,1-.751-.145,1.021,1.021,0,0,1-.44-.493L87.569,7.108,81.317,9.691a1.01,1.01,0,0,1-.655.038L80.1,9.567a1,1,0,0,1-.553-.4l-3.8-5.613L70.119,7.343A1.1,1.1,0,0,1,68.8,7.22L63.994,2.415,59.2,7.219a1,1,0,0,1-.636.292c-.178.013-.336.023-.5.046a1.006,1.006,0,0,1-.692-.156L51.719,3.659,47.978,9.293a1,1,0,0,1-.386.341,1.4,1.4,0,0,1-.527.132,1,1,0,0,1-.382-.076L40.429,7.108l-2.595,6.254a1,1,0,0,1-.451.5l-.486.262a1.127,1.127,0,0,1-.7.12l-6.636-1.3-1.286,6.649a1,1,0,0,1-.28.523,1.644,1.644,0,0,1-.321.235,1,1,0,0,1-.447.105H20.458v6.78a1,1,0,0,1-.228.635l-.361.441a1,1,0,0,1-.573.347l-6.653,1.356L14,36.656a1,1,0,0,1-.156.768,1.047,1.047,0,0,1-.482.423L7.107,40.43,9.69,46.683a1,1,0,0,1,.038.657l-.161.563a1,1,0,0,1-.4.554l-5.623,3.8,3.8,5.624a1,1,0,0,1,.172.56,1.13,1.13,0,0,1-.293.761L2.415,64.006,7.22,68.8a1,1,0,0,1,.292.641L7.551,70a1,1,0,0,1-.163.625L3.646,76.279l5.645,3.728a1,1,0,0,1,.4.511c.008.024.021.069.031.108a1,1,0,0,1-.027.69L7.107,87.571l6.254,2.595a1,1,0,0,1,.5.447c.055.1.1.2.153.3l.117.228a1,1,0,0,1,.1.664L12.943,98.44l6.65,1.286a1,1,0,0,1,.629.407,1.042,1.042,0,0,1,.235.643v6.767h6.767a1,1,0,0,1,.633.226l.141.113c.117.093.233.186.337.278a1,1,0,0,1,.313.545L30,115.357,36.643,114a1,1,0,0,1,.635.079,1.554,1.554,0,0,1,.327.221,1.006,1.006,0,0,1,.229.336l2.595,6.254,6.254-2.583a1,1,0,0,1,.655-.038l.565.161a1,1,0,0,1,.554.4l3.787,5.622,5.623-3.8A1,1,0,0,1,58.427,120.487Zm56.595-29.4h0Zm-51.028-12.2a14.891,14.891,0,1,1,14.9-14.884A14.9,14.9,0,0,1,63.993,78.891Zm0-27.781a12.891,12.891,0,1,0,12.9,12.9A12.9,12.9,0,0,0,63.993,51.109Z" fill="#2f3a5a"/><path d="M63.993,39.9A24.1,24.1,0,1,0,88.1,64.007,24.1,24.1,0,0,0,63.993,39.9Zm0,39.044A14.941,14.941,0,1,1,78.941,64.007,14.927,14.927,0,0,1,63.993,78.941Z" fill="#707583"/></svg>
