<svg id="icon" height="512" viewBox="0 0 128 128" width="512" xmlns="http://www.w3.org/2000/svg"><rect fill="#e1b378" height="112.978" rx="1.763" width="84.519" x="21.74" y="14.022"/><g opacity=".5"><path d="m106.26 15.79v109.45a1.763 1.763 0 0 1 -1.76 1.76h-81a1.763 1.763 0 0 1 -1.76-1.76v-1.26h79.95a1.039 1.039 0 0 0 1.04-1.04v-108.92h1.77a1.765 1.765 0 0 1 1.76 1.77z" fill="#bd8d5a"/></g><path d="m104.5 128h-81a2.767 2.767 0 0 1 -2.764-2.764v-109.451a2.767 2.767 0 0 1 2.764-2.764h81a2.767 2.767 0 0 1 2.764 2.764v109.451a2.767 2.767 0 0 1 -2.764 2.764zm-81-112.979a.765.765 0 0 0 -.764.764v109.451a.765.765 0 0 0 .764.764h81a.765.765 0 0 0 .764-.764v-109.451a.765.765 0 0 0 -.764-.764z" fill="#2f3a5a"/><path d="m28.621 21.178h70.758v98.907h-70.758z" fill="#e1e6e9"/><path d="m99.38 21.18v98.9h-70.76v-3.92h66.94v-94.98z" fill="#c1cdd3"/><path d="m99.379 121.085h-70.758a1 1 0 0 1 -1-1v-98.907a1 1 0 0 1 1-1h70.758a1 1 0 0 1 1 1v98.907a1 1 0 0 1 -1 1zm-69.758-2h68.758v-96.907h-68.758z" fill="#2f3a5a"/><path d="m73.37 10.57v-.2a9.37 9.37 0 0 0 -18.74 0v.2h-12.01v16.21h42.76v-16.21zm-9.37-4.79a2.63 2.63 0 1 1 -2.63 2.63 2.633 2.633 0 0 1 2.63-2.63z" fill="#9297ab"/><path d="m85.38 10.57v16.21h-42.76v-3.98h39.31v-12.23z" fill="#84879c"/><path d="m85.38 27.78h-42.76a1 1 0 0 1 -1-1v-16.21a1 1 0 0 1 1-1h11.04a10.371 10.371 0 0 1 20.68 0h11.04a1 1 0 0 1 1 1v16.21a1 1 0 0 1 -1 1zm-41.76-2h40.76v-14.21h-11.01a1 1 0 0 1 -1-1v-.2a8.37 8.37 0 0 0 -16.74 0v.2a1 1 0 0 1 -1 1h-11.01zm20.38-13.74a3.63 3.63 0 1 1 3.63-3.63 3.633 3.633 0 0 1 -3.63 3.63zm0-5.26a1.63 1.63 0 1 0 1.63 1.63 1.632 1.632 0 0 0 -1.63-1.63z" fill="#2f3a5a"/><g fill="#9297ab"><path d="m89.093 45.406h-50.186a1 1 0 0 1 0-2h50.186a1 1 0 0 1 0 2z"/><path d="m89.093 58.452h-50.186a1 1 0 0 1 0-2h50.186a1 1 0 0 1 0 2z"/><path d="m89.093 71.5h-50.186a1 1 0 0 1 0-2h50.186a1 1 0 0 1 0 2z"/><path d="m89.093 84.542h-50.186a1 1 0 0 1 0-2h50.186a1 1 0 0 1 0 2z"/><path d="m89.093 97.588h-50.186a1 1 0 0 1 0-2h50.186a1 1 0 0 1 0 2z"/></g></svg>