<svg id="icon" height="512" viewBox="0 0 128 128" width="512" xmlns="http://www.w3.org/2000/svg"><path d="m110.146 115.374c-21.442 9.9-76.823 9.068-93 0l6.154-17.03 4.777-13.223 5.535-15.331 4.788-13.239 5.538-15.331 4.777-13.22 8.007-22.14a7.351 7.351 0 0 1 13.83 0l8.007 22.14 4.776 13.22 5.55 15.331 4.777 13.238 5.55 15.331 4.777 13.223z" fill="#ef5361"/><path d="m110.15 115.37c-11.97 5.53-34.52 7.71-54.92 6.98 15.57-.55 30.57-2.81 39.57-6.98l-6.16-17.03-4.77-13.22-5.55-15.33-4.78-13.24-5.55-15.33-4.78-13.22-7.24-20.05.75-2.09a7.349 7.349 0 0 1 13.83 0l8.01 22.14 4.78 13.22 5.55 15.33 4.77 13.24 5.55 15.33 4.78 13.22z" fill="#da2a47"/><path d="m63.389 123.432c-19.518 0-38.55-2.6-46.734-7.186a1 1 0 0 1 -.452-1.212l39.578-109.517a8.284 8.284 0 0 1 7.861-5.517h.009a8.265 8.265 0 0 1 7.841 5.517l39.594 109.517a1 1 0 0 1 -.521 1.248c-10.665 4.926-29.131 7.15-47.176 7.15zm-45.011-8.532c16.16 8.182 68.518 9.45 90.511-.059l-39.278-108.641a6.218 6.218 0 0 0 -5.962-4.2h-.007a6.236 6.236 0 0 0 -5.981 4.2z" fill="#2f3a5a"/><path d="m83.335 41.22h-39.397l4.777-13.224h29.844z" fill="#f0f5f9"/><path d="m83.335 42.22h-39.4a1 1 0 0 1 -.935-1.34l4.777-13.223a1 1 0 0 1 .94-.66h29.842a1 1 0 0 1 .94.66l4.777 13.223a1 1 0 0 1 -.94 1.34zm-37.973-2h36.549l-4.055-11.22h-28.439z" fill="#2f3a5a"/><path d="m93.662 69.789h-60.051l4.792-13.238h50.483z" fill="#f0f5f9"/><path d="m93.662 70.79h-60.051a1 1 0 0 1 -.94-1.34l4.792-13.24a1 1 0 0 1 .94-.66h50.483a1 1 0 0 1 .94.661l4.774 13.239a1 1 0 0 1 -.94 1.339zm-58.625-2h57.2l-4.053-11.239h-49.084z" fill="#2f3a5a"/><path d="m103.989 98.344h-80.689l4.776-13.223h71.136z" fill="#f0f5f9"/><path d="m103.989 99.344h-80.689a1 1 0 0 1 -.94-1.34l4.776-13.223a1 1 0 0 1 .94-.66h71.136a1 1 0 0 1 .94.66l4.778 13.219a1 1 0 0 1 -.94 1.34zm-79.265-2h77.841l-4.055-11.223h-69.732z" fill="#2f3a5a"/><path d="m120.449 115.491h-112.898a5.755 5.755 0 1 0 0 11.509h112.9a5.755 5.755 0 1 0 0-11.509z" fill="#ef5361"/><path d="m121.89 115.68a4.6 4.6 0 0 1 .03.53 5.744 5.744 0 0 1 -5.75 5.75h-112.9a5.268 5.268 0 0 1 -1.44-.19 5.737 5.737 0 0 0 5.72 5.23h112.9a5.752 5.752 0 0 0 1.44-11.32z" fill="#da2a47"/><path d="m120.449 128h-112.898a6.755 6.755 0 1 1 0-13.509h112.9a6.755 6.755 0 1 1 0 13.509zm-112.898-11.509a4.755 4.755 0 1 0 0 9.509h112.9a4.755 4.755 0 1 0 0-9.509z" fill="#2f3a5a"/></svg>