<svg id="icon" height="512" viewBox="0 0 128 128" width="512" xmlns="http://www.w3.org/2000/svg"><path d="m99.668 79.656-.691-.326a2.89 2.89 0 0 0 -4.1 2.209l-1.747 12.37a2.89 2.89 0 0 0 2.862 3.3h2.443a2.89 2.89 0 0 0 2.89-2.89v-12.049a2.89 2.89 0 0 0 -1.657-2.614z" fill="#84879c"/><path d="m98.435 98.205h-2.443a3.891 3.891 0 0 1 -3.853-4.436l1.752-12.369a3.89 3.89 0 0 1 5.509-2.975l.691.326a3.906 3.906 0 0 1 2.23 3.519v12.044a3.9 3.9 0 0 1 -3.886 3.891zm-.693-18.154a1.9 1.9 0 0 0 -1.871 1.628l-1.751 12.37a1.891 1.891 0 0 0 1.872 2.156h2.443a1.893 1.893 0 0 0 1.89-1.891v-12.044a1.9 1.9 0 0 0 -1.083-1.71l-.691-.326a1.891 1.891 0 0 0 -.809-.183z" fill="#2f3a5a"/><path d="m1 32.4h34.785v5.748h-34.785z" fill="#c1cdd3"/><path d="m35.785 39.147h-34.785a1 1 0 0 1 -1-1v-5.747a1 1 0 0 1 1-1h34.785a1 1 0 0 1 1 1v5.748a1 1 0 0 1 -1 .999zm-33.785-2h32.785v-3.747h-32.785z" fill="#2f3a5a"/><rect fill="#9297ab" height="19.063" rx="2.109" width="14.957" x="18.802" y="25.742"/><path d="m33.756 36.036v6.664a2.1 2.1 0 0 1 -2.105 2.1h-10.742a2.1 2.1 0 0 1 -2.109-2.1v-6.664a2.11 2.11 0 0 0 2.105 2.117h10.746a2.11 2.11 0 0 0 2.105-2.117z" fill="#707583"/><path d="m31.65 45.8h-10.739a3.112 3.112 0 0 1 -3.111-3.1v-14.849a3.112 3.112 0 0 1 3.108-3.109h10.742a3.112 3.112 0 0 1 3.108 3.109v14.849a3.112 3.112 0 0 1 -3.108 3.1zm-10.739-19.058a1.11 1.11 0 0 0 -1.111 1.109v14.849a1.109 1.109 0 0 0 1.111 1.1h10.739a1.109 1.109 0 0 0 1.109-1.1v-14.849a1.11 1.11 0 0 0 -1.108-1.109z" fill="#2f3a5a"/><path d="m11.812 32.4 3.867 5.747" fill="#c1cdd3"/><path d="m12.746 31.81h2v6.927h-2z" fill="#2f3a5a" transform="matrix(.83 -.558 .558 .83 -17.35 13.681)"/><path d="m4.849 32.4 3.867 5.747" fill="#c1cdd3"/><path d="m5.783 31.81h2v6.928h-2z" fill="#2f3a5a" transform="matrix(.83 -.558 .558 .83 -18.538 9.796)"/><path d="m124.516 37.64c1.736-2.374-4.076-12.954-6.156-13.517l-5.6-1.429c-.446-1.152-2.527-1.232-3.762-1.232h-47.229a2.99 2.99 0 0 0 -2.99 2.99v41.892a2.99 2.99 0 0 0 2.99 2.99s7.945-.315 8.506-.876l.525-.525a2.99 2.99 0 0 1 2.114-.876h19.526a2.99 2.99 0 0 1 2.99 2.99v8.063a2.99 2.99 0 0 0 .876 2.114l2.153 2.153a2.99 2.99 0 0 1 .876 2.114v19.055a2.99 2.99 0 0 0 2.99 2.99h21.684a2.983 2.983 0 0 0 2.991-3c-.038-5.379-6.44-27.67-7.681-46.485-.171-2.6 2.191-6.249 3.226-8.982a37.8 37.8 0 0 0 1.971-10.429z" fill="#81dafc"/><g opacity=".5"><path d="m127 103.542a2.988 2.988 0 0 1 -3 3h-21.673a3 3 0 0 1 -3-3v-19.054a2.938 2.938 0 0 0 -.878-2.105l-2.149-2.153a3.026 3.026 0 0 1 -.866-2.117v-8.059a3 3 0 0 0 -3-3h-19.517a2.986 2.986 0 0 0 -2.117.878l-.529.517c-.553.565-8.5.878-8.5.878a2.993 2.993 0 0 1 -3-2.983v-3.833c7.265.493 18.772-.06 19.385-.06h19.528a2.993 2.993 0 0 1 3 2.983v8.071a2.976 2.976 0 0 0 .866 2.105l2.153 2.153a2.986 2.986 0 0 1 .878 2.117v19.055a3 3 0 0 0 3 3h19.4c.006.585.019 1.126.019 1.607z" fill="#3dbce9"/></g><path d="m124.009 107.537h-21.683a4 4 0 0 1 -3.99-3.99v-19.055a2 2 0 0 0 -.583-1.407l-2.153-2.154a3.964 3.964 0 0 1 -1.168-2.821v-8.062a1.992 1.992 0 0 0 -1.99-1.99h-19.527a17.009 17.009 0 0 0 -1.591.976c-1.272.831-2.023 1.3-2.686 1.3h-6.869a4 4 0 0 1 -3.99-3.99v-41.891a4 4 0 0 1 3.99-3.99h47.231c4.007 0 15.632 2.865 16.455 15.593.44 6.823-1.421 11.163-3.064 14.993-1.42 3.311-2.646 6.17-2.161 10.063 1.356 10.872 3.759 22.011 5.513 30.144 1.3 6.041 2.244 10.406 2.257 12.274a3.982 3.982 0 0 1 -3.991 4.007zm-51.094-41.479h19.525a4 4 0 0 1 3.99 3.99v8.062a2 2 0 0 0 .583 1.407l2.153 2.153a4.018 4.018 0 0 1 1.169 2.821v19.055a1.992 1.992 0 0 0 1.99 1.99h21.684a1.984 1.984 0 0 0 1.418-.588 1.96 1.96 0 0 0 .573-1.4c-.012-1.663-.983-6.166-2.212-11.867-1.762-8.17-4.175-19.358-5.542-30.318-.553-4.431.836-7.67 2.308-11.1 1.63-3.8 3.316-7.73 2.906-14.076-.86-13.351-14.324-13.724-14.46-13.724h-47.231a1.992 1.992 0 0 0 -1.99 1.99v41.891a1.992 1.992 0 0 0 1.99 1.99h6.869a17.009 17.009 0 0 0 1.591-.976c1.271-.83 2.023-1.3 2.686-1.3z" fill="#2f3a5a"/><path d="m64.1 21.463h-23.271a1.963 1.963 0 0 0 -1.829 1.247l-.2.513a1.963 1.963 0 0 1 -1.828 1.248h-2.19a1.963 1.963 0 0 0 -1.963 1.963v17.917a1.963 1.963 0 0 0 1.963 1.963h2.71a1.963 1.963 0 0 1 1.885 1.416l5.85 20.187a1.963 1.963 0 0 0 1.885 1.416h16.988a1.963 1.963 0 0 0 1.963-1.963v-43.944a1.963 1.963 0 0 0 -1.963-1.963z" fill="#d9e2e9"/><path d="m66.066 61.1v6.267a1.971 1.971 0 0 1 -1.973 1.961h-16.985a1.956 1.956 0 0 1 -1.877-1.419l-5.858-20.181a1.956 1.956 0 0 0 -1.873-1.42h-2.722a1.961 1.961 0 0 1 -1.961-1.961v-8.227a2.126 2.126 0 0 0 2.261 1.961h3.127a2.235 2.235 0 0 1 2.167 1.419l6.736 20.185c.292.842 15.18 1.415 16.192 1.415z" fill="#c1cdd3"/><g fill="#2f3a5a"><path d="m64.1 70.334h-16.988a2.978 2.978 0 0 1 -2.846-2.134l-5.85-20.187a.968.968 0 0 0 -.925-.695h-2.71a2.966 2.966 0 0 1 -2.963-2.962v-17.922a2.966 2.966 0 0 1 2.963-2.963h2.191a.957.957 0 0 0 .9-.612l.2-.513a2.945 2.945 0 0 1 2.759-1.883h23.269a2.966 2.966 0 0 1 2.963 2.962v43.947a2.966 2.966 0 0 1 -2.963 2.962zm-29.318-44.863a.964.964 0 0 0 -.963.963v17.918a.964.964 0 0 0 .963.962h2.71a2.978 2.978 0 0 1 2.846 2.138l5.85 20.188a.968.968 0 0 0 .925.695h16.987a.964.964 0 0 0 .963-.963v-43.947a.964.964 0 0 0 -.963-.962h-23.271a.957.957 0 0 0 -.9.612l-.2.513a2.945 2.945 0 0 1 -2.759 1.883z"/><path d="m93.72 31.749h-18.394a1 1 0 0 1 0-2h18.394a1 1 0 0 1 0 2z"/><path d="m93.72 36.273h-18.394a1 1 0 0 1 0-2h18.394a1 1 0 0 1 0 2z"/><path d="m93.72 40.8h-18.394a1 1 0 0 1 0-2h18.394a1 1 0 0 1 0 2z"/><path d="m93.72 45.324h-18.394a1 1 0 0 1 0-2h18.394a1 1 0 0 1 0 2z"/></g></svg>