<svg id="icon" height="512" viewBox="0 0 128 128" width="512" xmlns="http://www.w3.org/2000/svg"><path d="m72.561 50.09-64.219 64.219a3.282 3.282 0 0 0 0 4.641l7.087 7.087a3.282 3.282 0 0 0 4.641 0l64.219-64.219z" fill="#e1b378"/><path d="m84.293 61.82-64.221 64.221a3.281 3.281 0 0 1 -4.644-.007l-2.311-2.311a3.287 3.287 0 0 0 2.3-.96l64.218-64.222-7.765-7.765.69-.69z" fill="#bd8d5a"/><path d="m17.75 128a4.252 4.252 0 0 1 -3.027-1.254l-7.087-7.087a4.286 4.286 0 0 1 0-6.055l64.925-64.928 13.139 13.142-64.923 64.926a4.252 4.252 0 0 1 -3.027 1.256zm54.811-76.5-63.512 63.516a2.285 2.285 0 0 0 0 3.227l7.087 7.087a2.336 2.336 0 0 0 3.227 0l63.512-63.512z" fill="#2f3a5a"/><path d="m117.726 88.218c9.267-23.607-6.719-41.127-6.719-41.127l-22.949-22.949a4.48 4.48 0 0 0 -3.119-1.312l-4.681-.051a4.481 4.481 0 0 1 -3.12-1.312l-2.421-2.421a4.48 4.48 0 0 1 -1.3-3.454l.237-3.708a4.48 4.48 0 0 0 -1.3-3.454l-6.125-6.118a4.48 4.48 0 0 0 -6.336 0l-16.278 16.278a4.48 4.48 0 0 0 0 6.336l5.643 5.643a4.481 4.481 0 0 0 3.41 1.306l5.421-.293a4.48 4.48 0 0 1 3.41 1.306l1.911 1.912a4.48 4.48 0 0 1 1.29 3.587l-.457 4.878a4.48 4.48 0 0 0 1.293 3.586l21.58 21.58a4.664 4.664 0 0 0 5.537.718 11.492 11.492 0 0 1 16.78 8.982 62.733 62.733 0 0 1 .258 8.6 4.117 4.117 0 0 0 1.507 3.352c2.369 1.94 5.408.987 6.528-1.865z" fill="#84879c"/><path d="m113.3 91.054c7.281-22.344-7.6-38.654-7.6-38.654l-22.943-22.951a4.462 4.462 0 0 0 -3.129-1.308l-4.679-.057a4.447 4.447 0 0 1 -3.115-1.308l-2.425-2.425a4.464 4.464 0 0 1 -1.3-3.449l.235-3.7a4.511 4.511 0 0 0 -1.3-3.463l-6.119-6.121a4.489 4.489 0 0 0 -6.343 0l5.3-5.3a4.489 4.489 0 0 1 6.343 0l6.116 6.116a4.5 4.5 0 0 1 1.308 3.456l-.236 3.71a4.464 4.464 0 0 0 1.3 3.449l2.425 2.425a4.49 4.49 0 0 0 3.115 1.309l4.686.05a4.5 4.5 0 0 1 3.122 1.316l22.949 22.943s15.99 17.522 6.72 41.124a4.126 4.126 0 0 1 -4.43 2.838z" fill="#9297ab"/><path d="m113.889 92.1a5.243 5.243 0 0 1 -3.323-1.246 5.082 5.082 0 0 1 -1.872-4.165 61.44 61.44 0 0 0 -.253-8.457 10.23 10.23 0 0 0 -5.429-8.133 10.482 10.482 0 0 0 -9.885-.067 5.656 5.656 0 0 1 -6.715-.893l-21.58-21.58a5.463 5.463 0 0 1 -1.581-4.386l.457-4.877a3.468 3.468 0 0 0 -1-2.785l-1.913-1.914a3.506 3.506 0 0 0 -2.648-1.014l-5.421.292a5.463 5.463 0 0 1 -4.17-1.6l-5.643-5.643a5.48 5.48 0 0 1 0-7.75l16.273-16.277a5.479 5.479 0 0 1 7.75 0l6.119 6.119a5.481 5.481 0 0 1 1.594 4.224l-.237 3.708a3.48 3.48 0 0 0 1.012 2.683l2.421 2.421a3.46 3.46 0 0 0 2.423 1.019l4.681.051a5.449 5.449 0 0 1 3.816 1.6l22.949 22.949c.2.213 16.328 18.291 6.942 42.2a5.373 5.373 0 0 1 -3.588 3.363 4.674 4.674 0 0 1 -1.179.158zm-15.921-25.276a12.712 12.712 0 0 1 5.985 1.508 12.2 12.2 0 0 1 6.478 9.7 63.463 63.463 0 0 1 .261 8.737 3.1 3.1 0 0 0 1.144 2.539 3.049 3.049 0 0 0 2.729.706 3.405 3.405 0 0 0 2.23-2.158c8.921-22.725-6.372-39.918-6.527-40.089l-22.917-22.918a3.46 3.46 0 0 0 -2.423-1.019l-4.681-.051a5.449 5.449 0 0 1 -3.816-1.6l-2.421-2.426a5.482 5.482 0 0 1 -1.594-4.224l.237-3.708a3.478 3.478 0 0 0 -1.013-2.682l-6.119-6.119a3.565 3.565 0 0 0 -4.922 0l-16.277 16.28a3.48 3.48 0 0 0 0 4.922l5.643 5.643a3.491 3.491 0 0 0 2.648 1.014l5.421-.292a5.491 5.491 0 0 1 4.17 1.6l1.913 1.914a5.462 5.462 0 0 1 1.583 4.379l-.457 4.877a3.47 3.47 0 0 0 1 2.786l21.58 21.58a3.671 3.671 0 0 0 4.359.543 12.258 12.258 0 0 1 5.786-1.442z" fill="#2f3a5a"/></svg>