<?xml version="1.0"?>
<svg xmlns="http://www.w3.org/2000/svg" id="icon" viewBox="0 0 128 128" width="512" height="512"><path d="M58.274,98.116h-2V62.939a6.467,6.467,0,0,1,6.46-6.459h53.88a4.464,4.464,0,0,0,4.459-4.459V27.471a4.464,4.464,0,0,0-4.459-4.459H5.927v-2H116.614a6.466,6.466,0,0,1,6.459,6.459V52.02a6.467,6.467,0,0,1-6.459,6.459H62.734a4.465,4.465,0,0,0-4.46,4.459Z" fill="#2f3a5a"/><rect x="5.931" y="1.003" width="102.688" height="42.016" rx="5.037" ry="5.037" fill="#ffc943"/><path d="M10.965,1h92.617a5.039,5.039,0,0,1,5.039,5.039V37.98a5.038,5.038,0,0,1-5.038,5.038H10.965A5.038,5.038,0,0,1,5.927,37.98V6.039A5.039,5.039,0,0,1,10.965,1Z" fill="#da2a47"/><path d="M99.315,1V23.97a5.04,5.04,0,0,1-5.039,5.039H5.927V6.039A5.04,5.04,0,0,1,10.965,1Z" fill="#ef5361"/><path d="M103.581,44.02H10.968a6.044,6.044,0,0,1-6.037-6.037V6.041A6.044,6.044,0,0,1,10.968,0h92.613a6.044,6.044,0,0,1,6.037,6.037V37.982A6.044,6.044,0,0,1,103.581,44.02ZM10.968,2A4.042,4.042,0,0,0,6.931,6.041V37.982a4.042,4.042,0,0,0,4.037,4.037h92.613a4.042,4.042,0,0,0,4.037-4.037V6.041A4.042,4.042,0,0,0,103.581,2Z" fill="#2f3a5a"/><rect x="48.485" y="69.232" width="17.66" height="57.768" rx="3.263" ry="3.263" fill="#e1b378"/><path d="M66.145,72.491v51.247A3.266,3.266,0,0,1,62.883,127H51.744a3.266,3.266,0,0,1-3.262-3.262v-.749H57.33a3.259,3.259,0,0,0,3.262-3.262v-50.5h2.29A3.266,3.266,0,0,1,66.145,72.491Z" fill="#bd8d5a"/><path d="M62.882,128H51.748a4.268,4.268,0,0,1-4.263-4.263V72.5a4.268,4.268,0,0,1,4.263-4.263H62.882A4.268,4.268,0,0,1,67.145,72.5v51.241A4.268,4.268,0,0,1,62.882,128ZM51.748,70.232A2.265,2.265,0,0,0,49.485,72.5v51.241A2.265,2.265,0,0,0,51.748,126H62.882a2.265,2.265,0,0,0,2.263-2.263V72.5a2.265,2.265,0,0,0-2.263-2.263Z" fill="#2f3a5a"/></svg>
