<svg id="icon" height="512" viewBox="0 0 128 128" width="512" xmlns="http://www.w3.org/2000/svg"><path d="m98.062 1.05-96.517 96.517 29.483 29.483 96.517-96.517zm2.451 27.024a4 4 0 1 1 5.659 0 4 4 0 0 1 -5.659 0z" fill="#ffc943"/><path d="m65.052 4.646h16.675v136.491h-16.675z" fill="#f7b521" transform="matrix(.707 .707 -.707 .707 73.037 -30.545)"/><g fill="#2f3a5a"><path d="m31.027 128.05a1 1 0 0 1 -.707-.293l-29.482-29.483a1 1 0 0 1 0-1.414l96.517-96.517a1.029 1.029 0 0 1 1.414 0l29.482 29.483a1 1 0 0 1 0 1.414l-96.517 96.517a1 1 0 0 1 -.707.293zm-28.068-30.483 28.068 28.068 95.1-95.1-28.064-28.071zm100.384-67.32a4.969 4.969 0 0 1 -3.536-1.466 5 5 0 0 1 3.542-8.533h.006a5 5 0 0 1 -.012 10zm.012-8a3 3 0 0 0 -2.131 5.119 3.072 3.072 0 0 0 4.245 0 3 3 0 0 0 -2.111-5.119z"/><path d="m119.9 39.176a1 1 0 0 1 -.707-.293l-5.419-5.419a1 1 0 0 1 1.414-1.414l5.419 5.419a1 1 0 0 1 -.707 1.707z"/><path d="m111.8 47.274a1 1 0 0 1 -.707-.293l-3.705-3.706a1 1 0 0 1 1.414-1.414l3.705 3.706a1 1 0 0 1 -.707 1.707z"/><path d="m103.651 55.421a1 1 0 0 1 -.707-.293l-5.419-5.419a1 1 0 0 1 1.414-1.414l5.419 5.419a1 1 0 0 1 -.707 1.707z"/><path d="m95.554 63.519a1 1 0 0 1 -.707-.293l-3.705-3.706a1 1 0 0 1 1.414-1.414l3.705 3.706a1 1 0 0 1 -.707 1.707z"/><path d="m87.407 71.665a1 1 0 0 1 -.707-.293l-5.419-5.419a1 1 0 0 1 1.419-1.414l5.419 5.419a1 1 0 0 1 -.707 1.707z"/><path d="m79.31 79.763a1 1 0 0 1 -.707-.293l-3.703-3.706a1 1 0 0 1 1.414-1.414l3.705 3.706a1 1 0 0 1 -.707 1.707z"/><path d="m71.163 87.909a1 1 0 0 1 -.707-.293l-5.419-5.416a1 1 0 0 1 1.414-1.414l5.419 5.414a1 1 0 0 1 -.707 1.707z"/><path d="m63.065 96.007a1 1 0 0 1 -.707-.293l-3.705-3.705a1 1 0 0 1 1.414-1.414l3.705 3.705a1 1 0 0 1 -.707 1.707z"/><path d="m54.919 104.153a1 1 0 0 1 -.707-.293l-5.419-5.419a1 1 0 0 1 1.414-1.414l5.419 5.419a1 1 0 0 1 -.707 1.707z"/><path d="m46.821 112.251a1 1 0 0 1 -.707-.293l-3.705-3.705a1 1 0 0 1 1.414-1.414l3.705 3.705a1 1 0 0 1 -.707 1.707z"/><path d="m38.675 120.4a1 1 0 0 1 -.707-.293l-5.419-5.419a1 1 0 0 1 1.414-1.414l5.419 5.419a1 1 0 0 1 -.707 1.707z"/></g></svg>